<?xml version="1.0" encoding="UTF-8" standalone="no"?>
<svg
   width="341.49600000000004mm"
   height="66.5589758992052mm"
   viewBox="0 0 341.49600000000004 66.5589758992052"
   version="1.1"
   id="svg39"
   sodipodi:docname="flyboard2.svg"
   inkscape:version="1.2.2 (b0a8486541, 2022-12-01)"
   xmlns:inkscape="http://www.inkscape.org/namespaces/inkscape"
   xmlns:sodipodi="http://sodipodi.sourceforge.net/DTD/sodipodi-0.dtd"
   xmlns="http://www.w3.org/2000/svg"
   xmlns:svg="http://www.w3.org/2000/svg">
  <defs
     id="defs43" />
  <sodipodi:namedview
     id="namedview41"
     pagecolor="#ffffff"
     bordercolor="#666666"
     borderopacity="1.0"
     inkscape:showpageshadow="2"
     inkscape:pageopacity="0.0"
     inkscape:pagecheckerboard="0"
     inkscape:deskcolor="#d1d1d1"
     inkscape:document-units="mm"
     showgrid="false"
     inkscape:zoom="5.6568543"
     inkscape:cx="1243.0937"
     inkscape:cy="162.63456"
     inkscape:window-width="3840"
     inkscape:window-height="2091"
     inkscape:window-x="1920"
     inkscape:window-y="32"
     inkscape:window-maximized="1"
     inkscape:current-layer="svg39" />
  <path
     id="Body_f0000"
     d="m 279.70025,42.804488 c -92.11742,0 -184.234833,0 -276.35225,0 92.117417,0 184.23483,0 276.35225,0 z"
     stroke="#191919"
     stroke-width="0.35 px"
     style="fill:none;fill-opacity:1;fill-rule:evenodd;stroke:#ff0000;stroke-width:0.0254;stroke-linecap:square;stroke-miterlimit:4;stroke-dasharray:none;stroke-opacity:1" />
  <path
     id="Body_f0001"
     d="m 3.348,42.804488 c 0,-6.35 0,-12.7 0,-19.05 0,6.35 0,12.7 0,19.05 z"
     stroke="#191919"
     stroke-width="0.35 px"
     style="fill:none;fill-opacity:1;fill-rule:evenodd;stroke:#ff0000;stroke-width:0.0254;stroke-linecap:square;stroke-miterlimit:4;stroke-dasharray:none;stroke-opacity:1" />
  <path
     id="Body_f0002"
     d="m 279.7,23.754488 h 2.5e-4 C 284.3696,9.8094349 298.45953,1.3048863 312.97147,3.6707695 327.48315,6.0366129 338.136,18.574834 338.13581,33.280255 338.13562,47.985675 327.48244,60.523617 312.97069,62.88908 298.45869,65.254582 284.36898,56.749664 279.7,42.804488 h 2.5e-4"
     stroke="#191919"
     stroke-width="0.35 px"
     style="fill:none;fill-opacity:1;fill-rule:evenodd;stroke:#ff0000;stroke-width:0.0254;stroke-linecap:square;stroke-miterlimit:4;stroke-dasharray:none;stroke-opacity:1"
     sodipodi:nodetypes="ccssscc" />
  <circle
     cx="6.348"
     cy="-38.844486"
     r="0.75"
     stroke="#191919"
     stroke-width="0.35 px"
     style="fill:none;stroke-width:0.0254;stroke-linecap:square;stroke-miterlimit:4;stroke-dasharray:none;stroke:#ff0000;stroke-opacity:1"
     id="circle5"
     transform="scale(1,-1)" />
  <path
     id="Body_f0005"
     d="m 3.348,23.754488 c 92.117417,0 184.23483,0 276.35225,0 -92.11742,0 -184.234833,0 -276.35225,0 z"
     stroke="#191919"
     stroke-width="0.35 px"
     style="fill:none;fill-opacity:1;fill-rule:evenodd;stroke:#ff0000;stroke-width:0.0254;stroke-linecap:square;stroke-miterlimit:4;stroke-dasharray:none;stroke-opacity:1" />
  <circle
     cx="66.848"
     cy="-33.279488"
     r="0.75"
     stroke="#191919"
     stroke-width="0.35 px"
     style="fill:none;stroke-width:0.0254;stroke-linecap:square;stroke-miterlimit:4;stroke-dasharray:none;stroke:#ff0000;stroke-opacity:1"
     id="circle12"
     transform="scale(1,-1)" />
  <circle
     cx="82.087997"
     cy="-33.279488"
     r="0.75"
     stroke="#191919"
     stroke-width="0.35 px"
     style="fill:none;stroke-width:0.0254;stroke-linecap:square;stroke-miterlimit:4;stroke-dasharray:none;stroke:#ff0000;stroke-opacity:1"
     id="circle14"
     transform="scale(1,-1)" />
  <path
     id="Body_f0009"
     d="m 298.60861,36.279488 v 0 a 10,10 0 0 0 19.07839,0 h 3.9e-4 a 10,10 0 0 1 -19.07839,0 z"
     stroke="#191919"
     stroke-width="0.35 px"
     style="fill:none;fill-opacity:1;fill-rule:evenodd;stroke-width:0.0254;stroke-linecap:square;stroke-miterlimit:4;stroke-dasharray:none;stroke:#ff0000;stroke-opacity:1" />
  <path
     id="Body_f0010"
     d="m 298.60861,36.279488 c -5.93216,0 -11.86432,0 -17.79648,0 5.93216,0 11.86432,0 17.79648,0 z"
     stroke="#191919"
     stroke-width="0.35 px"
     style="fill:none;fill-opacity:1;fill-rule:evenodd;stroke:#ff0000;stroke-width:0.0254;stroke-linecap:square;stroke-miterlimit:4;stroke-dasharray:none;stroke-opacity:1" />
  <path
     id="Body_f0011"
     d="m 320.08308,36.279488 c -0.79856,0 -1.59713,0 -2.39569,0 0.79856,0 1.59713,0 2.39569,0 z"
     stroke="#191919"
     stroke-width="0.35 px"
     style="fill:none;fill-opacity:1;fill-rule:evenodd;stroke:#ff0000;stroke-width:0.0254;stroke-linecap:square;stroke-miterlimit:4;stroke-dasharray:none;stroke-opacity:1" />
  <path
     id="Body_f0012"
     d="m 280.812,36.279488 h 1.3e-4 c 1.56184,14.229518 13.77875,24.881027 28.08836,24.489304 14.30961,-0.391723 25.92549,-11.695651 26.70651,-25.989304 h 6e-5"
     stroke="#191919"
     stroke-width="0.35 px"
     style="fill:none;fill-opacity:1;fill-rule:evenodd;stroke:#ff0000;stroke-width:0.0254;stroke-linecap:square;stroke-miterlimit:4;stroke-dasharray:none;stroke-opacity:1"
     sodipodi:nodetypes="ccssc" />
  <path
     id="Body_f0013"
     d="m 321.61909,34.779488 c -0.512,0.5 -1.02401,1 -1.53601,1.5 0.512,-0.5 1.02401,-1 1.53601,-1.5 z"
     stroke="#191919"
     stroke-width="0.35 px"
     style="fill:none;fill-opacity:1;fill-rule:evenodd;stroke:#ff0000;stroke-width:0.0254;stroke-linecap:square;stroke-miterlimit:4;stroke-dasharray:none;stroke-opacity:1" />
  <path
     id="Body_f0014"
     d="m 335.60706,34.779488 c -4.66266,0 -9.32531,0 -13.98797,0 4.66266,0 9.32531,0 13.98797,0 z"
     stroke="#191919"
     stroke-width="0.35 px"
     style="fill:none;fill-opacity:1;fill-rule:evenodd;stroke:#ff0000;stroke-width:0.0254;stroke-linecap:square;stroke-miterlimit:4;stroke-dasharray:none;stroke-opacity:1" />
  <circle
     cx="299.548"
     cy="-33.279488"
     r="0.75"
     stroke="#191919"
     stroke-width="0.35 px"
     style="fill:none;stroke-width:0.0254;stroke-linecap:square;stroke-miterlimit:4;stroke-dasharray:none;stroke:#ff0000;stroke-opacity:1"
     id="circle22"
     transform="scale(1,-1)" />
  <circle
     cx="308.14798"
     cy="-33.279488"
     r="7"
     stroke="#191919"
     stroke-width="0.35 px"
     style="fill:none;stroke-width:0.0254;stroke-linecap:square;stroke-miterlimit:4;stroke-dasharray:none;stroke:#ff0000;stroke-opacity:1"
     id="circle24"
     transform="scale(1,-1)" />
  <circle
     cx="316.74799"
     cy="-33.279488"
     r="0.75"
     stroke="#191919"
     stroke-width="0.35 px"
     style="fill:none;stroke-width:0.0254;stroke-linecap:square;stroke-miterlimit:4;stroke-dasharray:none;stroke:#ff0000;stroke-opacity:1"
     id="circle26"
     transform="scale(1,-1)" />
  <circle
     cx="6.348"
     cy="-27.714487"
     r="0.75"
     stroke="#191919"
     stroke-width="0.35 px"
     style="fill:none;stroke-width:0.0254;stroke-linecap:square;stroke-miterlimit:4;stroke-dasharray:none;stroke:#ff0000;stroke-opacity:1"
     id="circle28"
     transform="scale(1,-1)" />
  <path
     id="Body_f0019"
     d="m 320.08308,30.279488 c -0.79856,0 -1.59713,0 -2.39569,0 0.79856,0 1.59713,0 2.39569,0 z"
     stroke="#191919"
     stroke-width="0.35 px"
     style="fill:none;fill-opacity:1;fill-rule:evenodd;stroke:#ff0000;stroke-width:0.0254;stroke-linecap:square;stroke-miterlimit:4;stroke-dasharray:none;stroke-opacity:1" />
  <path
     id="Body_f0020"
     d="m 298.609,30.279488 h -3.9e-4 c 2.93561,-9.332498 16.14278,-9.332498 19.07839,0"
     stroke="#191919"
     stroke-width="0.35 px"
     style="fill:none;fill-opacity:1;fill-rule:evenodd;stroke:#ff0000;stroke-width:0.0254;stroke-linecap:square;stroke-miterlimit:4;stroke-dasharray:none;stroke-opacity:1"
     sodipodi:nodetypes="ccc" />
  <path
     id="Body_f0021"
     d="m 321.61909,31.779488 c -0.512,-0.5 -1.02401,-1 -1.53601,-1.5 0.512,0.5 1.02401,1 1.53601,1.5 z"
     stroke="#191919"
     stroke-width="0.35 px"
     style="fill:none;fill-opacity:1;fill-rule:evenodd;stroke:#ff0000;stroke-width:0.0254;stroke-linecap:square;stroke-miterlimit:4;stroke-dasharray:none;stroke-opacity:1" />
  <path
     id="Body_f0022"
     d="m 298.60861,30.279488 c -5.93216,0 -11.86432,0 -17.79648,0 5.93216,0 11.86432,0 17.79648,0 z"
     stroke="#191919"
     stroke-width="0.35 px"
     style="fill:none;fill-opacity:1;fill-rule:evenodd;stroke:#ff0000;stroke-width:0.0254;stroke-linecap:square;stroke-miterlimit:4;stroke-dasharray:none;stroke-opacity:1" />
  <path
     id="Body_f0023"
     d="m 335.60706,31.779488 c -4.66266,0 -9.32531,0 -13.98797,0 4.66266,0 9.32531,0 13.98797,0 z"
     stroke="#191919"
     stroke-width="0.35 px"
     style="fill:none;fill-opacity:1;fill-rule:evenodd;stroke:#ff0000;stroke-width:0.0254;stroke-linecap:square;stroke-miterlimit:4;stroke-dasharray:none;stroke-opacity:1" />
  <path
     id="Body_f0024"
     d="m 280.812,30.279488 c 0.9887,-10.084462 8.0855,-19.215875 17.58491,-22.7181614 9.44115,-3.6845001 20.81854,-1.5372037 28.24538,5.3662974 5.31352,4.791846 8.60914,11.703351 8.96477,18.851864"
     stroke="#191919"
     stroke-width="0.35 px"
     style="fill:none;fill-opacity:1;fill-rule:evenodd;stroke:#ff0000;stroke-width:0.0254;stroke-linecap:square;stroke-miterlimit:4;stroke-dasharray:none;stroke-opacity:1"
     sodipodi:nodetypes="ccsssc" />
</svg>
